<?xml version="1.0" encoding="UTF-8" standalone="no"?>
<!-- Created with Inkscape (http://www.inkscape.org/) -->

<svg
   width="183.71883mm"
   height="139.09023mm"
   viewBox="0 0 183.71882 139.09023"
   version="1.1"
   id="svg5"
   sodipodi:docname="WDvide_Back.svg"
   inkscape:version="1.2.2 (732a01da63, 2022-12-09)"
   xmlns:inkscape="http://www.inkscape.org/namespaces/inkscape"
   xmlns:sodipodi="http://sodipodi.sourceforge.net/DTD/sodipodi-0.dtd"
   xmlns="http://www.w3.org/2000/svg"
   xmlns:svg="http://www.w3.org/2000/svg">
  <sodipodi:namedview
     id="namedview12"
     pagecolor="#ffffff"
     bordercolor="#000000"
     borderopacity="0.25"
     inkscape:showpageshadow="2"
     inkscape:pageopacity="0.0"
     inkscape:pagecheckerboard="0"
     inkscape:deskcolor="#d1d1d1"
     inkscape:document-units="mm"
     showgrid="false"
     inkscape:zoom="1.1460156"
     inkscape:cx="278.35571"
     inkscape:cy="78.096665"
     inkscape:window-width="1920"
     inkscape:window-height="1051"
     inkscape:window-x="-9"
     inkscape:window-y="-9"
     inkscape:window-maximized="1"
     inkscape:current-layer="svg5" />
  <defs
     id="defs2" />
  <g
     id="g1111"
     transform="translate(24.451002,41.44975)">
    <path
       id="path1008"
       style="fill:#fa005a;fill-opacity:0.968627;stroke-width:0.259601"
       d="m 81.560428,-41.44975 c -20.672118,0.01823 -40.484123,7.407328 -55.052971,20.532597 l -0.881083,0.264583 -42.343152,43.597339 -7.734224,8.01627 7.734224,7.038625 44.204537,40.090576 0.23151,0.102319 c 14.465201,12.465017 33.760513,19.434657 53.841159,19.447909 42.916662,-1.33e-4 77.707412,-31.136502 77.707402,-69.545109 1e-5,-38.408607 -34.79074,-69.544976 -77.707402,-69.545109 z"
       sodipodi:nodetypes="cccccccccsc" />
  </g>
  <g
     id="layer1"
     transform="translate(22.834896,41.911494)">
    <path
       d="m 106.38144,73.736942 0.0828,-91.840008 c 2.94475,0 5.88951,-0.03585 8.83426,-0.107586 h 0.25483 0.59461 c 6.11601,0.143448 11.6374,1.291028 16.5642,3.442743 4.9834,2.079992 9.06074,4.9489452 12.23201,8.606858 3.17126,3.5861919 5.60633,7.7461732 7.30523,12.4799479 1.69888,4.6620461 2.54833,9.6827161 2.54833,15.0620031 0,5.666181 -0.62293,10.937884 -1.86877,15.815101 -1.18923,4.87722 -2.80316,9.001339 -4.84184,12.372362 -1.98204,3.299294 -4.27555,6.132387 -6.88051,8.499273 -2.54834,2.366886 -5.18162,4.088259 -7.89986,5.164115 -2.6616,1.075858 -5.61224,1.467845 -8.16057,1.467845 l -8.31868,-9.321604 c 3.85084,0.07175 7.36188,-0.537923 10.53313,-1.828957 3.17127,-1.291027 5.80455,-3.048262 7.89987,-5.271699 2.09528,-2.223439 3.87913,-4.805499 5.35149,-7.746175 1.47238,-2.940678 2.52002,-5.917216 3.14295,-8.929617 0.62292,-3.084123 0.96271,-6.239975 1.01934,-9.467545 0,-8.248241 -2.57665,-14.9185541 -7.72996,-20.0109471 -5.09668,-5.0923908 -12.0338,-7.8178955 -20.81142,-8.1765166 0.0565,27.3267767 0.62926,42.5989357 0.68589,69.8539887 z"
       style="font-weight:500;font-size:44.7971px;font-family:shera;-inkscape-font-specification:'shera, Medium';fill:#020000;fill-opacity:0.969188;stroke-width:0.564621"
       id="path1099"
       sodipodi:nodetypes="ccccccccsccccccssscccccc" />
    <path
       d="m 34.176439,-18.103066 11.212682,-0.107586 5.351509,14.7392478 5.011731,-14.7392478 11.212683,0.107586 -10.448183,30.554347 10.61807,29.586082 20.641533,-60.140429 h 11.12773 L 66.965044,73.237226 50.910518,28.589143 40.377392,59.466251 H 32.477548 L 3.8512257,-18.103066 15.233798,-18.210652 35.960275,39.670474 45.219234,12.666456 Z"
       style="font-weight:500;font-size:44.7971px;font-family:shera;-inkscape-font-specification:'shera, Medium';fill:#020000;fill-opacity:0.969188;stroke-width:0.564621"
       id="path1097" />
    <path
       d="m 31.111968,-16.994129 11.212682,-0.107587 5.35151,14.7392495 5.011728,-14.7392495 11.212682,0.107587 -10.44818,30.554347 10.61807,29.586081 20.641533,-60.140428 H 95.839724 L 63.90057,74.346163 47.846047,29.698079 37.312921,60.575188 H 29.413076 L 0.78675473,-16.994129 12.169327,-17.101716 32.895804,40.779412 42.154762,13.775392 Z"
       style="font-weight:500;font-size:44.7971px;font-family:shera;-inkscape-font-specification:'shera, Medium';fill:#efe29e;stroke-width:0.564621"
       id="path2297" />
    <path
       d="m 104.52097,71.261338 -1.12118,-88.255467 c 2.94474,0 5.88949,-0.03585 8.83424,-0.107587 h 0.25484 0.5946 c 6.11602,0.143448 11.63741,1.291031 16.5642,3.442745 4.9834,2.07999 9.06074,4.9489454 12.23201,8.6068583 3.17128,3.5861924 5.60634,7.7461714 7.30523,12.4799466 1.69889,4.6620481 2.54834,9.6827141 2.54834,15.0620051 0,5.66618 -0.62292,10.937881 -1.86878,15.815101 -1.18922,4.87722 -2.80317,9.001339 -4.84184,12.372359 -1.98203,3.299296 -4.27554,6.132385 -6.88051,8.499275 -2.54833,2.366884 -5.18161,4.08826 -7.89985,5.164116 -2.6616,1.075857 -5.61223,1.467845 -8.16057,1.467845 l -8.31868,-9.321604 c 3.85084,0.07175 7.36188,-0.537924 10.53313,-1.828958 3.17127,-1.291028 5.80455,-3.048263 7.89986,-5.271701 2.0953,-2.22344 3.87912,-4.805496 5.3515,-7.746176 1.47238,-2.940676 2.52003,-5.917215 3.14293,-8.929617 0.62294,-3.084123 0.96273,-6.239971 1.01937,-9.467544 0,-8.248239 -2.57666,-14.9185551 -7.72997,-20.0109443 -5.09668,-5.0923908 -12.03381,-7.8178976 -20.81144,-8.1765172 0.0565,27.3267745 0.62928,39.8578155 0.6859,67.1128675 z"
       style="font-weight:500;font-size:44.7971px;font-family:shera;-inkscape-font-specification:'shera, Medium';fill:#efe29e;stroke-width:0.564621"
       id="path2299"
       sodipodi:nodetypes="ccccccccsccccccssscccccc" />
  </g>
</svg>
