<?xml version="1.0" encoding="UTF-8" standalone="no"?>
<!-- Created with Inkscape (http://www.inkscape.org/) -->

<svg
   width="67.203133mm"
   height="65.99958mm"
   viewBox="0 0 67.203133 65.99958"
   version="1.1"
   id="svg5"
   inkscape:export-filename="wikilogo.svg"
   inkscape:export-xdpi="96"
   inkscape:export-ydpi="96"
   sodipodi:docname="wikilogo.svg"
   inkscape:version="1.2.2 (732a01da63, 2022-12-09)"
   xmlns:inkscape="http://www.inkscape.org/namespaces/inkscape"
   xmlns:sodipodi="http://sodipodi.sourceforge.net/DTD/sodipodi-0.dtd"
   xmlns="http://www.w3.org/2000/svg"
   xmlns:svg="http://www.w3.org/2000/svg">
  <sodipodi:namedview
     id="namedview7"
     pagecolor="#ffffff"
     bordercolor="#000000"
     borderopacity="0.25"
     inkscape:showpageshadow="2"
     inkscape:pageopacity="0.0"
     inkscape:pagecheckerboard="0"
     inkscape:deskcolor="#d1d1d1"
     inkscape:document-units="mm"
     showgrid="false"
     inkscape:zoom="3.4636584"
     inkscape:cx="87.191047"
     inkscape:cy="124.86797"
     inkscape:window-width="1920"
     inkscape:window-height="1051"
     inkscape:window-x="-9"
     inkscape:window-y="-9"
     inkscape:window-maximized="1"
     inkscape:current-layer="layer1" />
  <defs
     id="defs2" />
  <g
     inkscape:label="Capa 1"
     inkscape:groupmode="layer"
     id="layer1"
     transform="translate(-65.656458,-5.3283571)">
    <path
       id="path1957"
       style="fill:#fa005a;fill-opacity:0.78431374;stroke-width:0.264999"
       d="M 99.258024,5.3283569 A 33.601562,33 0 0 0 87.617908,7.3907633 H 71.15638 V 20.267497 A 33.601562,33 0 0 0 65.656458,38.327893 33.601562,33 0 0 0 99.258024,71.327946 33.601562,33 0 0 0 132.85959,38.327893 33.601562,33 0 0 0 129.24999,23.454382 V 7.3907633 H 110.9493 A 33.601562,33 0 0 0 99.258024,5.3283569 Z m -18.684648,19.3724611 10.930599,24.100854 4.88239,-11.244275 -5.823417,-12.811621 5.913334,-0.04496 2.82205,6.137093 2.643248,-6.137093 5.91334,0.04496 -5.51026,12.722221 5.59966,12.319145 10.88564,-25.041366 h 5.86837 L 107.85492,62.77808 99.388249,44.187484 93.833032,57.044063 H 89.666878 L 74.570642,24.745776 Z"
       inkscape:label="path1957" />
  </g>
</svg>
