<?xml version="1.0" encoding="UTF-8" standalone="no"?>
<!-- Created with Inkscape (http://www.inkscape.org/) -->

<svg
   width="154.68448mm"
   height="41.885284mm"
   viewBox="0 0 154.68448 41.885284"
   version="1.1"
   id="svg5"
   xmlns="http://www.w3.org/2000/svg"
   xmlns:svg="http://www.w3.org/2000/svg">
  <defs
     id="defs2" />
  <g
     id="layer1"
     transform="translate(-18.368685,-7.2325409)">
    <g
       aria-label="WDvide"
       id="text790"
       style="font-size:44.7971px;font-family:'Bitstream Vera Sans';-inkscape-font-specification:'Bitstream Vera Sans, Normal';fill:#333333;stroke-width:0.264583">
      <path
         d="m 34.36125,7.277338 5.913217,-0.044797 2.822217,6.137203 2.643029,-6.137203 5.913217,0.044797 -5.510043,12.722376 5.599637,12.319203 L 62.62822,7.277338 h 5.86842 L 51.65293,45.310076 43.186278,26.719279 37.631438,39.576047 h -4.16613 L 18.368685,7.277338 24.371496,7.2325409 35.301989,31.333381 40.184873,20.089309 Z"
         style="font-weight:500;font-family:shera;-inkscape-font-specification:'shera, Medium';fill:#efe29e"
         id="path2297" />
      <path
         d="M 72.349193,49.117829 72.483584,7.277338 c 1.552966,0 3.105932,-0.014932 4.658899,-0.044797 h 0.134391 0.31358 c 3.225391,0.059729 6.137202,0.5375651 8.735434,1.4335072 2.628097,0.8660773 4.778358,2.0606668 6.450783,3.5837678 1.672425,1.493237 2.956608,3.225391 3.85255,5.196464 0.895942,1.941207 1.343913,4.031739 1.343913,6.271594 0,2.359314 -0.328512,4.554372 -0.985536,6.585173 -0.627159,2.030802 -1.478304,3.748024 -2.553435,5.151667 -1.045265,1.373777 -2.254787,2.553434 -3.628565,3.538971 -1.343913,0.985536 -2.732623,1.70229 -4.16613,2.150261 -1.403643,0.447971 -2.959721,0.611189 -4.303634,0.611189 L 77.94883,37.873757 c 2.030802,0.02987 3.882416,-0.223983 5.554841,-0.76155 1.672425,-0.537565 3.061135,-1.269251 4.16613,-2.195058 1.104995,-0.925807 2.045734,-2.000937 2.822217,-3.225392 0.776483,-1.224454 1.328981,-2.46384 1.657493,-3.718159 0.328512,-1.284183 0.5077,-2.598232 0.537565,-3.942145 0,-3.434444 -1.358845,-6.211864 -4.076536,-8.33226 -2.687826,-2.120396 -6.346256,-3.255256 -10.975289,-3.40458 0.02987,11.378463 0.05973,22.741994 0.08959,34.090593 z"
         style="font-weight:500;font-family:shera;-inkscape-font-specification:'shera, Medium';fill:#efe29e"
         id="path2299" />
      <path
         d="m 99.630647,17.1327 h 4.210923 l 7.66031,16.574927 6.98835,-16.574927 4.03173,-0.0448 -9.54178,22.443347 h -2.86701 z"
         style="font-family:shera;-inkscape-font-specification:'shera, Normal';fill:#ff5c3d"
         id="path2301" />
      <path
         d="m 125.92656,22.060381 3.89735,-3.091 -0.0448,21.233826 -3.80775,0.716753 z m 0,-9.228203 4.12134,-3.4941734 -0.0896,5.5996374 -3.98694,3.180594 z"
         style="font-family:shera;-inkscape-font-specification:'shera, Normal';fill:#ff5c3d"
         id="path2303" />
      <path
         d="M 133.04929,47.325945 133.18368,17.1327 q 1.65749,-0.0448 3.35978,-0.0448 h 0.0896 0.22398 q 6.89875,0.08959 10.7961,3.494174 3.94215,3.359782 3.94215,8.421854 0,3.135797 -1.07513,5.734029 -1.03034,2.598232 -2.73263,4.166131 -1.65749,1.523101 -3.58377,2.329449 -1.92627,0.851145 -3.80775,0.806348 l -3.27019,-2.822218 q 2.73263,0.0448 4.83809,-0.851145 2.10546,-0.895942 3.31499,-2.374246 1.25431,-1.523101 1.83668,-3.225391 0.62716,-1.70229 0.62716,-3.538971 0.0448,-3.762956 -2.91182,-6.047609 -2.91181,-2.284652 -7.92908,-2.419043 0,12.319203 0.0448,24.638405 z"
         style="font-family:shera;-inkscape-font-specification:'shera, Normal';fill:#ff5c3d"
         id="path2305" />
      <path
         d="m 173.05316,21.61241 q -1.07514,-0.761551 -2.55344,-1.254319 -1.4783,-0.492768 -3.27019,-0.492768 -1.79188,0 -3.49417,0.582362 -1.65749,0.537566 -3.1806,2.060667 -1.5231,1.523101 -2.41904,3.897348 l 6.89875,0.0448 -1.29911,3.091 -5.59964,-0.08959 q 0.26878,2.463841 1.97107,4.255725 1.70229,1.747087 3.94215,2.46384 2.23985,0.716754 4.70369,0.492769 2.50864,-0.223986 4.30053,-1.433508 l -0.0448,4.121334 q -2.23986,1.119927 -4.88289,1.209521 -2.59823,0.0896 -5.01727,-0.806347 -2.41904,-0.895943 -4.43491,-2.508638 -2.01587,-1.612696 -3.22539,-4.076536 -1.20953,-2.508638 -1.16473,-5.420449 0,-2.732623 1.16473,-5.062073 1.20952,-2.329449 3.18059,-3.807753 2.01587,-1.478304 4.43491,-2.239855 2.41905,-0.806348 5.01728,-0.671957 2.64303,0.134392 4.97248,1.254319 z"
         style="font-family:shera;-inkscape-font-specification:'shera, Normal';fill:#ff5c3d"
         id="path2307" />
    </g>
  </g>
</svg>
